<svg xmlns="http://www.w3.org/2000/svg" viewBox="0 0 1250 2000" preserveAspectRatio="xMidYMid slice">
  <defs>
    <linearGradient id="front" x1="0" y1="0" x2="1" y2="1">
      <stop offset="0" stop-color="#00D26A"/>
      <stop offset="1" stop-color="#00B4FF"/>
    </linearGradient>
    <linearGradient id="back" x1="0" y1="0" x2="1" y2="1">
      <stop offset="0" stop-color="#0c6b53"/>
      <stop offset="1" stop-color="#0b4f77"/>
    </linearGradient>
  </defs>
  <rect width="1250" height="2000" fill="#0A0E13"/>
  <!-- canto superior direito -->
  <path fill="url(#back)" d="M690,-20 C820,190 630,395 800,575 C935,720 1120,715 1270,630 L1270,-20 Z"/>
  <path fill="url(#front)" d="M885,-20 C975,175 840,365 985,545 C1085,665 1195,645 1270,585 L1270,-20 Z"/>
  <!-- canto inferior esquerdo -->
  <path fill="url(#back)" d="M560,2020 C430,1810 620,1605 450,1425 C315,1280 130,1285 -20,1370 L-20,2020 Z"/>
  <path fill="url(#front)" d="M365,2020 C275,1825 410,1635 265,1455 C165,1335 55,1355 -20,1415 L-20,2020 Z"/>
</svg>
